<?xml version="1.0" encoding="utf-8"?>
<!-- Generator: Adobe Illustrator 17.1.0, SVG Export Plug-In . SVG Version: 6.00 Build 0)  -->
<!DOCTYPE svg PUBLIC "-//W3C//DTD SVG 1.1//EN" "http://www.w3.org/Graphics/SVG/1.1/DTD/svg11.dtd">
<svg version="1.1" id="Layer_1" xmlns="http://www.w3.org/2000/svg" xmlns:xlink="http://www.w3.org/1999/xlink" x="0px" y="0px"
	 viewBox="0 0 353.9 193" enable-background="new 0 0 353.9 193" xml:space="preserve">
<g>
	<path fill="#160F30" d="M179,87c0-0.5-6.2,0.2-6.2,0.2L169,74.5c0,0-1.2,5-1.2,8.8s-1.8,13-1.8,13c-42,5.5-44-26.5-44-26.5H9
		c0,0,68,22,50,67c0,0,105.5-14,120,52.5c14.5-66.5,120-52.5,120-52.5c-18-45,50-67,50-67H236c0,0-2,32-44,26.5c0,0-1.8-9.2-1.8-13
		s-1.2-8.8-1.2-8.8l-3.8,12.8C185.2,87.2,179,86.5,179,87z"/>
</g>
<g>
	<g>
		<linearGradient id="SVGID_1_" gradientUnits="userSpaceOnUse" x1="53.4113" y1="69.6834" x2="194.9573" y2="35.9819">
			<stop  offset="0.1822" style="stop-color:#FFFFFF"/>
			<stop  offset="0.2579" style="stop-color:#F1F1F1"/>
			<stop  offset="0.4018" style="stop-color:#CBCBCB"/>
			<stop  offset="0.5989" style="stop-color:#8E8E8E"/>
			<stop  offset="0.8389" style="stop-color:#3C3C3C"/>
			<stop  offset="1" style="stop-color:#000000"/>
		</linearGradient>
		<path fill="url(#SVGID_1_)" d="M8.9,9.9c3.5-0.7,9.9-1.3,16.2-1.3c8.1,0,13.2,1.1,17.3,3.9c3.8,2.2,6.3,6.2,6.3,11.4
			c0,5.6-3.5,10.6-10.1,13v0.3c6.4,1.6,12.2,6.7,12.2,14.9c0,5.4-2.3,9.6-5.8,12.6c-4.3,3.7-11.4,5.6-22.6,5.6
			c-6.1,0-10.7-0.4-13.6-0.8V9.9z M19.9,33.8h5.7c7.7,0,12-3.6,12-8.7c0-5.8-4.3-8.4-11.3-8.4c-3.2,0-5.1,0.2-6.3,0.5V33.8z
			 M19.9,61.6c1.4,0.3,3.3,0.3,5.9,0.3c7.1,0,13.5-2.6,13.5-10.1c0-7.1-6.2-10-13.9-10h-5.5V61.6z"/>
		<linearGradient id="SVGID_2_" gradientUnits="userSpaceOnUse" x1="53.4113" y1="69.6834" x2="194.9573" y2="35.9819">
			<stop  offset="0.1822" style="stop-color:#FFFFFF"/>
			<stop  offset="0.2579" style="stop-color:#F1F1F1"/>
			<stop  offset="0.4018" style="stop-color:#CBCBCB"/>
			<stop  offset="0.5989" style="stop-color:#8E8E8E"/>
			<stop  offset="0.8389" style="stop-color:#3C3C3C"/>
			<stop  offset="1" style="stop-color:#000000"/>
		</linearGradient>
		<path fill="url(#SVGID_2_)" d="M74.4,52.4l-5.2,17.2H57.8L77.2,9h14.1L111,69.6h-12l-5.5-17.2H74.4z M91.8,44.1L87,29.1
			c-1.2-3.7-2.2-7.8-3.1-11.3h-0.2c-0.9,3.5-1.9,7.7-2.9,11.3l-4.7,14.9H91.8z"/>
		<linearGradient id="SVGID_3_" gradientUnits="userSpaceOnUse" x1="53.4113" y1="69.6834" x2="194.9573" y2="35.9819">
			<stop  offset="0.1822" style="stop-color:#FFFFFF"/>
			<stop  offset="0.2579" style="stop-color:#F1F1F1"/>
			<stop  offset="0.4018" style="stop-color:#CBCBCB"/>
			<stop  offset="0.5989" style="stop-color:#8E8E8E"/>
			<stop  offset="0.8389" style="stop-color:#3C3C3C"/>
			<stop  offset="1" style="stop-color:#000000"/>
		</linearGradient>
		<path fill="url(#SVGID_3_)" d="M125.6,18.2h-17.3V9h45.8v9.3h-17.5v51.4h-11.1V18.2z"/>
		<linearGradient id="SVGID_4_" gradientUnits="userSpaceOnUse" x1="53.4113" y1="69.6834" x2="194.9573" y2="35.9819">
			<stop  offset="0.1822" style="stop-color:#FFFFFF"/>
			<stop  offset="0.2579" style="stop-color:#F1F1F1"/>
			<stop  offset="0.4018" style="stop-color:#CBCBCB"/>
			<stop  offset="0.5989" style="stop-color:#8E8E8E"/>
			<stop  offset="0.8389" style="stop-color:#3C3C3C"/>
			<stop  offset="1" style="stop-color:#000000"/>
		</linearGradient>
		<path fill="url(#SVGID_4_)" d="M214,44.9c-0.4-7.8-0.8-17.3-0.7-25.5H213c-2,7.4-4.5,15.6-7.2,23.2l-8.9,26.3h-8.5L180.3,43
			c-2.3-7.7-4.5-16-6.1-23.6H174c-0.3,7.9-0.6,17.5-1.1,25.8l-1.4,24.4h-10.3l4-60.7h14.6l7.9,24.4c2.2,7.1,4,14.3,5.6,21.1h0.3
			c1.6-6.6,3.7-14,6-21.1L208.1,9h14.4l3.5,60.7h-10.8L214,44.9z"/>
		<linearGradient id="SVGID_5_" gradientUnits="userSpaceOnUse" x1="53.4113" y1="69.6834" x2="194.9573" y2="35.9819">
			<stop  offset="0.1822" style="stop-color:#FFFFFF"/>
			<stop  offset="0.2579" style="stop-color:#F1F1F1"/>
			<stop  offset="0.4018" style="stop-color:#CBCBCB"/>
			<stop  offset="0.5989" style="stop-color:#8E8E8E"/>
			<stop  offset="0.8389" style="stop-color:#3C3C3C"/>
			<stop  offset="1" style="stop-color:#000000"/>
		</linearGradient>
		<path fill="url(#SVGID_5_)" d="M252.6,52.4l-5.2,17.2H236L255.4,9h14.1l19.7,60.7h-12l-5.5-17.2H252.6z M270,44.1l-4.8-14.9
			c-1.2-3.7-2.2-7.8-3.1-11.3H262c-0.9,3.5-1.9,7.7-2.9,11.3l-4.7,14.9H270z"/>
		<linearGradient id="SVGID_6_" gradientUnits="userSpaceOnUse" x1="53.4113" y1="69.6834" x2="194.9573" y2="35.9819">
			<stop  offset="0.1822" style="stop-color:#FFFFFF"/>
			<stop  offset="0.2579" style="stop-color:#F1F1F1"/>
			<stop  offset="0.4018" style="stop-color:#CBCBCB"/>
			<stop  offset="0.5989" style="stop-color:#8E8E8E"/>
			<stop  offset="0.8389" style="stop-color:#3C3C3C"/>
			<stop  offset="1" style="stop-color:#000000"/>
		</linearGradient>
		<path fill="url(#SVGID_6_)" d="M301.4,69.6V9h12.7l15.7,26c4,6.7,7.6,13.8,10.3,20.3h0.2c-0.8-8.1-1-15.9-1-25.2V9h10.3v60.7H338
			l-15.8-26.7c-3.9-6.7-7.8-14-10.8-20.9l-0.4,0.1c0.4,7.8,0.6,15.8,0.6,25.8v21.7H301.4z"/>
	</g>
	<g>
		<path fill="#160F30" d="M8.9,9.9c3.5-0.7,9.9-1.3,16.2-1.3c8.1,0,13.2,1.1,17.3,3.9c3.8,2.2,6.3,6.2,6.3,11.4
			c0,5.6-3.5,10.6-10.1,13v0.3c6.4,1.6,12.2,6.7,12.2,14.9c0,5.4-2.3,9.6-5.8,12.6c-4.3,3.7-11.4,5.6-22.6,5.6
			c-6.1,0-10.7-0.4-13.6-0.8V9.9z M19.9,33.8h5.7c7.7,0,12-3.6,12-8.7c0-5.8-4.3-8.4-11.3-8.4c-3.2,0-5.1,0.2-6.3,0.5V33.8z
			 M19.9,61.6c1.4,0.3,3.3,0.3,5.9,0.3c7.1,0,13.5-2.6,13.5-10.1c0-7.1-6.2-10-13.9-10h-5.5V61.6z"/>
		<path fill="#160F30" d="M74.4,52.4l-5.2,17.2H57.8L77.2,9h14.1L111,69.6h-12l-5.5-17.2H74.4z M91.8,44.1L87,29.1
			c-1.2-3.7-2.2-7.8-3.1-11.3h-0.2c-0.9,3.5-1.9,7.7-2.9,11.3l-4.7,14.9H91.8z"/>
		<path fill="#160F30" d="M125.6,18.2h-17.3V9h45.8v9.3h-17.5v51.4h-11.1V18.2z"/>
		<path fill="#160F30" d="M214,44.9c-0.4-7.8-0.8-17.3-0.7-25.5H213c-2,7.4-4.5,15.6-7.2,23.2l-8.9,26.3h-8.5L180.3,43
			c-2.3-7.7-4.5-16-6.1-23.6H174c-0.3,7.9-0.6,17.5-1.1,25.8l-1.4,24.4h-10.3l4-60.7h14.6l7.9,24.4c2.2,7.1,4,14.3,5.6,21.1h0.3
			c1.6-6.6,3.7-14,6-21.1L208.1,9h14.4l3.5,60.7h-10.8L214,44.9z"/>
		<path fill="#160F30" d="M252.6,52.4l-5.2,17.2H236L255.4,9h14.1l19.7,60.7h-12l-5.5-17.2H252.6z M270,44.1l-4.8-14.9
			c-1.2-3.7-2.2-7.8-3.1-11.3H262c-0.9,3.5-1.9,7.7-2.9,11.3l-4.7,14.9H270z"/>
		<path fill="#160F30" d="M301.4,69.6V9h12.7l15.7,26c4,6.7,7.6,13.8,10.3,20.3h0.2c-0.8-8.1-1-15.9-1-25.2V9h10.3v60.7H338
			l-15.8-26.7c-3.9-6.7-7.8-14-10.8-20.9l-0.4,0.1c0.4,7.8,0.6,15.8,0.6,25.8v21.7H301.4z"/>
	</g>
</g>
<g>
	<path fill="#160F30" d="M51,6.6c0,0-0.6,0.1-0.6,0.1l-0.6-1.2c0,0,0,0.5,0,0.9c0.1,0.4,0.1,1.3,0.1,1.3c-3.8,1.2-4.6-1.9-4.6-1.9
		L34.8,7.7c0,0,6.7,1,5.8,5.7c0,0,9.6-3.1,12.1,3.2c0.2-6.7,10.3-7,10.3-7c-2.4-4.1,3.5-7.3,3.5-7.3L56,4c0,0,0.4,3.1-3.7,3.3
		c0,0-0.3-0.9-0.4-1.2c-0.1-0.4-0.3-0.8-0.3-0.8l-0.1,1.3C51.6,6.5,51,6.6,51,6.6z"/>
</g>
<g>
	<path fill="#160F30" d="M232.5,16.6c0,0-0.6,0.1-0.6,0.1l-0.6-1.2c0,0,0,0.5,0,0.9c0.1,0.4,0.1,1.3,0.1,1.3
		c-3.8,1.2-4.6-1.9-4.6-1.9l-10.6,1.8c0,0,6.7,1,5.8,5.7c0,0,9.6-3.1,12.1,3.2c0.2-6.7,10.3-7,10.3-7c-2.4-4.1,3.5-7.3,3.5-7.3
		L237.5,14c0,0,0.4,3.1-3.7,3.3c0,0-0.3-0.9-0.4-1.2c-0.1-0.4-0.3-0.8-0.3-0.8l-0.1,1.3C233.1,16.5,232.5,16.6,232.5,16.6z"/>
</g>
<g>
	<path fill="#160F30" d="M124.4,38.4c0,0-0.5-0.2-0.5-0.2l0.2-1.3c0,0-0.3,0.4-0.5,0.7s-0.7,1.1-0.7,1.1c-3.8-1.2-2.7-4.1-2.7-4.1
		l-9.7-4.5c0,0,4.9,4.7,1.5,8c0,0,9.7,2.9,8.2,9.5c4-5.4,12.5,0.1,12.5,0.1c0.3-4.7,7.1-4,7.1-4l-9.7-4.5c0,0-1.5,2.8-4.9,0.6
		c0,0,0.2-0.9,0.4-1.2s0.3-0.8,0.3-0.8l-0.8,1C125,38.7,124.5,38.4,124.4,38.4z"/>
</g>
<g>
	<path fill="#160F30" d="M337.7,6.6c0,0-0.6-0.1-0.6-0.1L337,5.2c0,0-0.2,0.5-0.3,0.8s-0.4,1.2-0.4,1.2c-4-0.1-3.7-3.3-3.7-3.3
		l-10.6-1.8c0,0,6,3.2,3.6,7.3c0,0,10.1,0.3,10.4,7c2.4-6.2,12.1-3.2,12.1-3.2c-1-4.7,5.8-5.7,5.8-5.7l-10.6-1.8
		c0,0-0.7,3.1-4.5,1.9c0,0,0-0.9,0-1.3c0.1-0.4,0-0.9,0-0.9l-0.6,1.2C338.3,6.7,337.7,6.5,337.7,6.6z"/>
</g>
</svg>
